<svg width="85" height="15" viewBox="0 0 85 15" fill="none" xmlns="http://www.w3.org/2000/svg">
<path d="M6.35635 0.609131H9.73236L10.9583 4.73955L12.2031 0.609131H15.5791L13.3158 7.0028L14.2777 9.73755L17.1633 0.609131H21.1617L16.1072 14H12.9198L10.9583 9.20946L9.01566 14H5.82826L0.773675 0.609131H4.75322L7.65771 9.73755L8.58187 7.0028L6.35635 0.609131ZM25.3558 14.1886C24.4882 14.1886 23.715 14.0566 23.036 13.7925C22.357 13.5159 21.7849 13.145 21.3197 12.6798C20.8671 12.2146 20.5213 11.6802 20.2824 11.0766C20.0435 10.4731 19.924 9.83814 19.924 9.17174C19.924 8.21615 20.1315 7.34229 20.5464 6.55015C20.9614 5.74544 21.5712 5.10419 22.3759 4.62639C23.1806 4.13602 24.1739 3.89084 25.3558 3.89084C26.5377 3.89084 27.5311 4.12974 28.3358 4.60753C29.1405 5.08533 29.7503 5.71401 30.1652 6.49357C30.5801 7.27313 30.7876 8.12185 30.7876 9.03972C30.7876 9.22832 30.775 9.42321 30.7499 9.62439C30.7373 9.813 30.7185 9.98274 30.6933 10.1336H23.7338C23.759 10.4857 23.8533 10.7749 24.0167 11.0012C24.1928 11.215 24.4065 11.3721 24.658 11.4727C24.922 11.5733 25.1924 11.6236 25.469 11.6236C25.8588 11.6236 26.2234 11.5356 26.5629 11.3595C26.9149 11.1835 27.1476 10.9383 27.2607 10.624L30.2972 11.4916C30.0332 12.0197 29.6623 12.4849 29.1845 12.8872C28.7193 13.2896 28.166 13.6102 27.5248 13.8491C26.8835 14.0754 26.1605 14.1886 25.3558 14.1886ZM23.6584 7.98354H26.9401C26.9024 7.65663 26.8081 7.38001 26.6572 7.15368C26.5189 6.92736 26.3303 6.75133 26.0914 6.62559C25.8651 6.49986 25.601 6.43699 25.2992 6.43699C24.9975 6.43699 24.7271 6.49986 24.4882 6.62559C24.2619 6.75133 24.0733 6.92736 23.9224 7.15368C23.7841 7.38001 23.6961 7.65663 23.6584 7.98354ZM42.3372 14V6.94622L40.0928 11.9065H38.1314L35.887 6.94622V14H32.2092V0.609131H36.2265L39.1121 6.9085L42.0166 0.609131H46.015V14H42.3372ZM47.9674 10.6051V4.07944H51.5508V9.79414C51.5508 10.2216 51.6451 10.5611 51.8337 10.8126C52.0349 11.0515 52.3052 11.1709 52.6447 11.1709C52.8333 11.1709 53.0219 11.1458 53.2105 11.0955C53.3991 11.0452 53.5877 10.9446 53.7763 10.7937C53.9775 10.6429 54.1724 10.4291 54.361 10.1525V4.07944H57.9445V10.0393C57.9445 10.3788 57.9948 10.6177 58.0954 10.756C58.196 10.8818 58.372 10.9572 58.6235 10.9823V14C58.3091 14.0629 58.0262 14.1069 57.7748 14.132C57.5233 14.1697 57.3032 14.1886 57.1146 14.1886C56.5111 14.1886 56.0333 14.0754 55.6812 13.8491C55.3292 13.6228 55.1029 13.277 55.0023 12.8118L54.9268 12.4534C54.4616 13.0696 53.9021 13.5159 53.2483 13.7925C52.607 14.0566 51.8777 14.1886 51.0605 14.1886C50.0671 14.1886 49.3002 13.8806 48.7595 13.2644C48.2314 12.6483 47.9674 11.7619 47.9674 10.6051ZM64.0684 14.1886C63.2008 14.1886 62.3458 14.0503 61.5034 13.7737C60.6735 13.4845 59.9694 13.0696 59.391 12.5289L60.6169 10.3222C61.233 10.7246 61.824 11.0389 62.3898 11.2652C62.9682 11.4916 63.49 11.6047 63.9552 11.6047C64.2193 11.6047 64.4141 11.5733 64.5399 11.5104C64.6656 11.435 64.7285 11.3155 64.7285 11.1521C64.7285 11.0389 64.6845 10.9446 64.5965 10.8692C64.5084 10.7937 64.3638 10.7183 64.1627 10.6429C63.9741 10.5674 63.7289 10.4857 63.4271 10.3977C62.6476 10.121 61.9937 9.86329 61.4656 9.62439C60.9501 9.38549 60.5603 9.0963 60.2963 8.75681C60.0448 8.40475 59.9191 7.93953 59.9191 7.36115C59.9191 6.68217 60.0888 6.08493 60.4283 5.56941C60.7678 5.04132 61.2519 4.62639 61.8806 4.32463C62.5218 4.02286 63.2888 3.87198 64.1815 3.87198C64.8479 3.87198 65.5143 3.97885 66.1807 4.1926C66.8597 4.39378 67.5135 4.7647 68.1422 5.30537L66.7843 7.49317C66.1556 7.10339 65.6212 6.82677 65.1811 6.66331C64.7536 6.49986 64.3701 6.41813 64.0306 6.41813C63.8672 6.41813 63.7226 6.43699 63.5969 6.47471C63.4837 6.51243 63.3957 6.56901 63.3328 6.64445C63.2699 6.71989 63.2385 6.82048 63.2385 6.94622C63.2385 7.07195 63.2825 7.17883 63.3705 7.26684C63.4586 7.34229 63.5969 7.41773 63.7855 7.49317C63.9741 7.55604 64.213 7.63148 64.5022 7.71949C65.3572 7.97097 66.055 8.22872 66.5957 8.49277C67.1363 8.74424 67.5324 9.05229 67.7839 9.41693C68.0479 9.78156 68.1799 10.2594 68.1799 10.8503C68.1799 11.8939 67.809 12.7112 67.0672 13.3022C66.3379 13.8931 65.3383 14.1886 64.0684 14.1886ZM69.5374 14V4.07944H73.1209V14H69.5374ZM69.5374 3.24958V0.231924H73.1209V3.24958H69.5374ZM79.8377 14.1886C78.9576 14.1886 78.178 14.0503 77.499 13.7737C76.8326 13.4971 76.2668 13.1198 75.8016 12.6421C75.3364 12.1517 74.9843 11.5984 74.7454 10.9823C74.5065 10.3662 74.3871 9.71869 74.3871 9.03972C74.3871 8.13442 74.5945 7.29199 75.0094 6.51243C75.437 5.72029 76.0531 5.08533 76.8578 4.60753C77.675 4.12974 78.6684 3.89084 79.8377 3.89084C81.0322 3.89084 82.0381 4.14231 82.8554 4.64525C83.6727 5.1482 84.2825 5.79574 84.6848 6.58787L81.1957 7.64405C81.0322 7.40515 80.831 7.22284 80.5921 7.0971C80.3658 6.97137 80.108 6.9085 79.8188 6.9085C79.4919 6.9085 79.1965 6.99651 78.9324 7.17254C78.6684 7.336 78.4546 7.5749 78.2912 7.88924C78.1403 8.20358 78.0648 8.58707 78.0648 9.03972C78.0648 9.4798 78.1403 9.86329 78.2912 10.1902C78.4546 10.5045 78.6684 10.7497 78.9324 10.9258C79.1965 11.0892 79.4919 11.1709 79.8188 11.1709C80.02 11.1709 80.2023 11.1458 80.3658 11.0955C80.5293 11.0326 80.6801 10.9446 80.8184 10.8315C80.9693 10.7183 81.0951 10.5863 81.1957 10.4354L84.6848 11.4916C84.4208 12.0197 84.0561 12.4849 83.5909 12.8872C83.1383 13.2896 82.5976 13.6102 81.9689 13.8491C81.3528 14.0754 80.6424 14.1886 79.8377 14.1886Z" fill="black"/>
</svg>
